name C:\Users\u0101727\Documents\MyRepositories\upper-imu-dc\Results\main_tracking\Case_31\kinematics.mot
datacolumns 10
datarows 23
range 5.00000000 5.22000000
endheader 
time	clav_prot	clav_elev	scapula_abduction	scapula_elevation	scapula_upward_rot	scapula_winging	plane_elv	shoulder_elv	axial_rot	
          5.00000000	        -27.86617030	          4.70805030	         -6.39726453	         -3.04741819	         38.79826263	         -3.56619139	         73.34237594	         47.40593170	        -26.44003601	
          5.01000000	        -27.71532388	          4.46275824	         -6.50613793	         -3.12981436	         38.22535537	         -3.37358548	         73.07164021	         46.98858132	        -26.10056133	
          5.02000000	        -27.57206572	          4.21681017	         -6.62163610	         -3.21263773	         37.65859026	         -3.18146633	         72.80488332	         46.57681617	        -25.71261575	
          5.03000000	        -27.43409294	          3.97252823	         -6.73838095	         -3.29455835	         37.10076927	         -2.99061846	         72.54011819	         46.16751875	        -25.25914436	
          5.04000000	        -27.29836734	          3.73091176	         -6.84945166	         -3.37513957	         36.55450866	         -2.80147380	         72.27308818	         45.75728257	        -24.72396277	
          5.05000000	        -27.16178152	          3.49151590	         -6.94803050	         -3.45486830	         36.02156718	         -2.61401481	         71.99777733	         45.34349953	        -24.10195086	
          5.06000000	        -27.02200165	          3.25285334	         -7.02931411	         -3.53485061	         35.50242987	         -2.42785549	         71.70786440	         44.92524387	        -23.40556069	
          5.07000000	        -26.87815467	          3.01315693	         -7.09191402	         -3.61630060	         34.99634074	         -2.24247205	         71.39866303	         44.50354609	        -22.66435206	
          5.08000000	        -26.73104621	          2.77117627	         -7.13811911	         -3.70004003	         34.50176512	         -2.05747734	         71.06869727	         44.08091601	        -21.91790690	
          5.09000000	        -26.58278566	          2.52666020	         -7.17287918	         -3.78622144	         34.01705011	         -1.87280633	         70.72012026	         43.66032292	        -21.20560145	
          5.10000000	        -26.43595800	          2.28032979	         -7.20192864	         -3.87437909	         33.54097798	         -1.68872692	         70.35770620	         43.24408044	        -20.55774681	
          5.11000000	        -26.29267162	          2.03340504	         -7.22980201	         -3.96375063	         33.07300517	         -1.50568353	         69.98685687	         42.83307492	        -19.99103770	
          5.12000000	        -26.15384515	          1.78696953	         -7.25848204	         -4.05367960	         32.61315881	         -1.32406641	         69.61157269	         42.42655809	        -19.50837415	
          5.13000000	        -26.01898020	          1.54153147	         -7.28712785	         -4.14387049	         32.16170701	         -1.14403254	         69.23336237	         42.02245532	        -19.10094207	
          5.14000000	        -25.88647208	          1.29702695	         -7.31292241	         -4.23434325	         31.71876131	         -0.96547072	         68.85155863	         41.61799238	        -18.75063073	
          5.15000000	        -25.75432628	          1.05326770	         -7.33272096	         -4.32509162	         31.28391808	         -0.78811915	         68.46471337	         41.21046650	        -18.43315328	
          5.16000000	        -25.62101994	          0.81060380	         -7.34493486	         -4.41560204	         30.85598889	         -0.61176278	         68.07215060	         40.79803961	        -18.12369471	
          5.17000000	        -25.48619230	          0.57047380	         -7.35096063	         -4.50446275	         30.43287776	         -0.43640907	         67.67474473	         40.38038172	        -17.80522424	
          5.18000000	        -25.35087616	          0.33557312	         -7.35550923	         -4.58926322	         30.01170562	         -0.26236930	         67.27451817	         39.95889632	        -17.47612594	
          5.19000000	        -25.21712338	          0.10953297	         -7.36551645	         -4.66687234	         29.58924694	         -0.09022394	         66.87331918	         39.53631839	        -17.15230979	
          5.20000000	        -25.08713634	         -0.10379787	         -7.38794022	         -4.73402569	         29.16258571	          0.07930682	         66.47128891	         39.11576482	        -16.86147465	
          5.21000000	        -24.96227831	         -0.30120623	         -7.42735777	         -4.78801152	         28.72974144	          0.24553705	         66.06591181	         38.69962866	        -16.63147763	
          5.22000000	        -24.84241535	         -0.48078970	         -7.48441124	         -4.82720682	         28.29001827	          0.40797012	         65.65215128	         38.28877658	        -16.47738143	
